<?xml version="1.0" encoding="UTF-8"?>
<svg id="Livello_1" data-name="Livello 1" xmlns="http://www.w3.org/2000/svg" viewBox="0 0 1853.57 804.95">
  <defs>
    <style>
      .cls-1 {
        fill: #f4f4f6;
      }
    </style>
  </defs>
  <rect class="cls-1" x="0" y="324.08" width="711.31" height="156.79" rx="78.39" ry="78.39"/>
  <rect class="cls-1" x="247.68" y="648.16" width="795.44" height="156.79" rx="78.39" ry="78.39"/>
  <rect class="cls-1" x="290.95" y="0" width="566.38" height="156.79" rx="78.39" ry="78.39"/>
  <path class="cls-1" d="M1263.42,479.31l110.85,110.85-191.82,191.82c-30.63,30.63-80.22,30.63-110.85,0-15.32-15.32-22.92-35.34-22.92-55.37s7.6-40.16,22.92-55.48l191.82-191.82Z"/>
  <path class="cls-1" d="M1853.57,89.22c0,20.03-7.71,40.06-23.03,55.37l-345.43,334.72-110.85-110.85L1719.7,33.74c30.63-30.63,80.32-30.63,110.85,0,15.32,15.32,23.03,35.34,23.03,55.48Z"/>
  <path class="cls-1" d="M984.18,0c20.03,0,40.06,7.71,55.37,23.03l334.72,345.43-110.85,110.85-334.72-345.43c-30.63-30.63-30.63-80.32,0-110.85,15.32-15.32,35.34-23.03,55.48-23.03Z"/>
</svg>